<?xml version="1.0" encoding="UTF-8" standalone="no"?>
<!DOCTYPE svg PUBLIC "-//W3C//DTD SVG 1.1//EN"
 "http://www.w3.org/Graphics/SVG/1.1/DTD/svg11.dtd">
<!-- Generated by graphviz version 2.43.0 (0)
 -->
<!-- Title: f01_flow Pages: 1 -->
<svg width="468pt" height="332pt"
 viewBox="0.00 0.00 468.00 332.37" xmlns="http://www.w3.org/2000/svg" xmlns:xlink="http://www.w3.org/1999/xlink">
<g id="graph0" class="graph" transform="scale(0.85 0.85) rotate(0) translate(4 386.51)">
<title>f01_flow</title>
<!-- req -->
<g id="node1" class="node">
<title>req</title>
<ellipse fill="none" stroke="#3a4756" stroke-width="1.2" stroke-dasharray="5,2" cx="324.5" cy="-359.88" rx="200.64" ry="22.76"/>
<text text-anchor="middle" x="324.5" y="-363.08" font-family="Helvetica,sans-Serif" font-size="11.00">POST /api/events</text>
<text text-anchor="middle" x="324.5" y="-351.08" font-family="Helvetica,sans-Serif" font-size="11.00">(Basic Auth + JSON + base64 image + event_id)</text>
</g>
<!-- authck -->
<g id="node2" class="node">
<title>authck</title>
<path fill="#f4f6f8" stroke="#3a4756" stroke-width="1.2" d="M376.5,-291.25C376.5,-291.25 272.5,-291.25 272.5,-291.25 266.5,-291.25 260.5,-285.25 260.5,-279.25 260.5,-279.25 260.5,-267.25 260.5,-267.25 260.5,-261.25 266.5,-255.25 272.5,-255.25 272.5,-255.25 376.5,-255.25 376.5,-255.25 382.5,-255.25 388.5,-261.25 388.5,-267.25 388.5,-267.25 388.5,-279.25 388.5,-279.25 388.5,-285.25 382.5,-291.25 376.5,-291.25"/>
<text text-anchor="middle" x="324.5" y="-270.45" font-family="Helvetica,sans-Serif" font-size="11.00">require_basic_auth()</text>
</g>
<!-- req&#45;&gt;authck -->
<g id="edge1" class="edge">
<title>req&#45;&gt;authck</title>
<path fill="none" stroke="#5b6b7b" stroke-width="1.1" d="M324.5,-337.09C324.5,-325.66 324.5,-311.6 324.5,-299.67"/>
<polygon fill="#5b6b7b" stroke="#5b6b7b" stroke-width="1.1" points="327.3,-299.44 324.5,-291.44 321.7,-299.44 327.3,-299.44"/>
<text text-anchor="middle" x="328" y="-312.05" font-family="Helvetica,sans-Serif" font-size="9.00">1</text>
</g>
<!-- schema -->
<g id="node3" class="node">
<title>schema</title>
<path fill="#fdf1d6" stroke="#3a4756" stroke-width="1.2" d="M402,-209.25C402,-209.25 217,-209.25 217,-209.25 211,-209.25 205,-203.25 205,-197.25 205,-197.25 205,-185.25 205,-185.25 205,-179.25 211,-173.25 217,-173.25 217,-173.25 402,-173.25 402,-173.25 408,-173.25 414,-179.25 414,-185.25 414,-185.25 414,-197.25 414,-197.25 414,-203.25 408,-209.25 402,-209.25"/>
<text text-anchor="middle" x="309.5" y="-194.45" font-family="Helvetica,sans-Serif" font-size="11.00">Validate Pydantic schema</text>
<text text-anchor="middle" x="309.5" y="-182.45" font-family="Helvetica,sans-Serif" font-size="11.00">+ max image size + ULID event_id</text>
</g>
<!-- authck&#45;&gt;schema -->
<g id="edge3" class="edge">
<title>authck&#45;&gt;schema</title>
<path fill="none" stroke="#5b6b7b" stroke-width="1.1" d="M321.25,-254.9C319.19,-243.92 316.49,-229.55 314.2,-217.34"/>
<polygon fill="#5b6b7b" stroke="#5b6b7b" stroke-width="1.1" points="316.92,-216.65 312.7,-209.3 311.42,-217.68 316.92,-216.65"/>
<text text-anchor="middle" x="332" y="-230.05" font-family="Helvetica,sans-Serif" font-size="9.00">2b: ok</text>
</g>
<!-- reject -->
<g id="node7" class="node">
<title>reject</title>
<ellipse fill="none" stroke="#3a4756" stroke-width="1.2" stroke-dasharray="5,2" cx="471.5" cy="-109.25" rx="70.21" ry="18"/>
<text text-anchor="middle" x="471.5" y="-106.45" font-family="Helvetica,sans-Serif" font-size="11.00">401 / 422 rejected</text>
</g>
<!-- authck&#45;&gt;reject -->
<g id="edge2" class="edge">
<title>authck&#45;&gt;reject</title>
<path fill="none" stroke="#5b6b7b" stroke-width="1.1" d="M351.29,-255.21C380.61,-236.55 423.5,-209.25 423.5,-209.25 423.5,-209.25 445.31,-164.26 459.53,-134.94"/>
<polygon fill="#5b6b7b" stroke="#5b6b7b" stroke-width="1.1" points="462.17,-135.92 463.14,-127.5 457.13,-133.48 462.17,-135.92"/>
<text text-anchor="middle" x="481" y="-189.05" font-family="Helvetica,sans-Serif" font-size="9.00">2a: bad credential</text>
</g>
<!-- writet -->
<g id="node4" class="node">
<title>writet</title>
<path fill="#f4f6f8" stroke="#3a4756" stroke-width="1.2" d="M197,-127.25C197,-127.25 12,-127.25 12,-127.25 6,-127.25 0,-121.25 0,-115.25 0,-115.25 0,-103.25 0,-103.25 0,-97.25 6,-91.25 12,-91.25 12,-91.25 197,-91.25 197,-91.25 203,-91.25 209,-97.25 209,-103.25 209,-103.25 209,-115.25 209,-115.25 209,-121.25 203,-127.25 197,-127.25"/>
<text text-anchor="middle" x="104.5" y="-112.45" font-family="Helvetica,sans-Serif" font-size="11.00">Upsert metadata row</text>
<text text-anchor="middle" x="104.5" y="-100.45" font-family="Helvetica,sans-Serif" font-size="11.00">(Table Storage, keyed on event_id)</text>
</g>
<!-- schema&#45;&gt;writet -->
<g id="edge5" class="edge">
<title>schema&#45;&gt;writet</title>
<path fill="none" stroke="#5b6b7b" stroke-width="1.1" d="M265.77,-173.19C233.52,-160.61 189.55,-143.44 155.66,-130.22"/>
<polygon fill="#5b6b7b" stroke="#5b6b7b" stroke-width="1.1" points="156.63,-127.59 148.16,-127.29 154.59,-132.81 156.63,-127.59"/>
<text text-anchor="middle" x="238.5" y="-148.05" font-family="Helvetica,sans-Serif" font-size="9.00">3b: valid</text>
</g>
<!-- writeb -->
<g id="node5" class="node">
<title>writeb</title>
<path fill="#f4f6f8" stroke="#3a4756" stroke-width="1.2" d="M371.5,-127.25C371.5,-127.25 239.5,-127.25 239.5,-127.25 233.5,-127.25 227.5,-121.25 227.5,-115.25 227.5,-115.25 227.5,-103.25 227.5,-103.25 227.5,-97.25 233.5,-91.25 239.5,-91.25 239.5,-91.25 371.5,-91.25 371.5,-91.25 377.5,-91.25 383.5,-97.25 383.5,-103.25 383.5,-103.25 383.5,-115.25 383.5,-115.25 383.5,-121.25 377.5,-127.25 371.5,-127.25"/>
<text text-anchor="middle" x="305.5" y="-112.45" font-family="Helvetica,sans-Serif" font-size="11.00">Write image blob</text>
<text text-anchor="middle" x="305.5" y="-100.45" font-family="Helvetica,sans-Serif" font-size="11.00">(Blob Storage, overwrite)</text>
</g>
<!-- schema&#45;&gt;writeb -->
<g id="edge6" class="edge">
<title>schema&#45;&gt;writeb</title>
<path fill="none" stroke="#5b6b7b" stroke-width="1.1" d="M308.63,-172.9C308.08,-161.92 307.36,-147.55 306.75,-135.34"/>
<polygon fill="#5b6b7b" stroke="#5b6b7b" stroke-width="1.1" points="309.55,-135.16 306.35,-127.3 303.96,-135.43 309.55,-135.16"/>
<text text-anchor="middle" x="327.5" y="-148.05" font-family="Helvetica,sans-Serif" font-size="9.00">3b: valid</text>
</g>
<!-- schema&#45;&gt;reject -->
<g id="edge4" class="edge">
<title>schema&#45;&gt;reject</title>
<path fill="none" stroke="#5b6b7b" stroke-width="1.1" d="M342.01,-173.24C366.37,-160.5 395.5,-145.25 395.5,-145.25 395.5,-145.25 413.21,-137.1 431.54,-128.66"/>
<polygon fill="#5b6b7b" stroke="#5b6b7b" stroke-width="1.1" points="432.73,-131.19 438.83,-125.3 430.39,-126.1 432.73,-131.19"/>
<text text-anchor="middle" x="419" y="-148.05" font-family="Helvetica,sans-Serif" font-size="9.00">3a: invalid</text>
</g>
<!-- resp -->
<g id="node6" class="node">
<title>resp</title>
<ellipse fill="none" stroke="#3a4756" stroke-width="1.2" stroke-dasharray="5,2" cx="205.5" cy="-22.63" rx="65.11" ry="22.76"/>
<text text-anchor="middle" x="205.5" y="-25.83" font-family="Helvetica,sans-Serif" font-size="11.00">202 Accepted</text>
<text text-anchor="middle" x="205.5" y="-13.83" font-family="Helvetica,sans-Serif" font-size="11.00">{event_id}</text>
</g>
<!-- writet&#45;&gt;resp -->
<g id="edge7" class="edge">
<title>writet&#45;&gt;resp</title>
<path fill="none" stroke="#5b6b7b" stroke-width="1.1" d="M124.94,-91.13C139.39,-79.02 159.01,-62.58 175.26,-48.96"/>
<polygon fill="#5b6b7b" stroke="#5b6b7b" stroke-width="1.1" points="177.21,-50.99 181.54,-43.7 173.61,-46.69 177.21,-50.99"/>
<text text-anchor="middle" x="161" y="-66.05" font-family="Helvetica,sans-Serif" font-size="9.00">4</text>
</g>
<!-- writeb&#45;&gt;resp -->
<g id="edge8" class="edge">
<title>writeb&#45;&gt;resp</title>
<path fill="none" stroke="#5b6b7b" stroke-width="1.1" d="M285.26,-91.13C270.95,-79.02 251.53,-62.58 235.44,-48.96"/>
<polygon fill="#5b6b7b" stroke="#5b6b7b" stroke-width="1.1" points="237.14,-46.73 229.22,-43.7 233.52,-51.01 237.14,-46.73"/>
<text text-anchor="middle" x="264" y="-66.05" font-family="Helvetica,sans-Serif" font-size="9.00">4</text>
</g>
</g>
</svg>
